<svg width="3182" height="2550" viewBox="0 0 3182 2550" fill="none" xmlns="http://www.w3.org/2000/svg">
<path d="M1181.26 948.749L1517.48 1317.11L1913.59 948.079H1830.64V812.455C1830.64 117.036 1299.53 42.0671 1071.12 42.0671H1065.66C747.043 43.5088 461.378 199.162 261.392 480.347C81.8478 732.749 6.51844 1046.37 57.4417 1306.91C135.14 903.077 443.511 492.653 818.304 492.653L824.792 492.756C983.638 494.867 1121.68 552.587 1203.7 651.499C1268.53 729.557 1293.19 826.358 1274.97 931.345L1271.93 948.749H1181.26ZM43.694 1418.44C-55.1147 1129.43 16.8678 751.595 227.152 455.941C432.235 167.805 737.775 1.54472 1065.51 0.0515237L1071.12 -3.5931e-05C1312.14 -3.5931e-05 1872.66 79.1911 1872.66 812.455V906.167H2020.28L1515.06 1376.73L1086.1 906.733H1236.19C1246.8 821.003 1224.56 742.275 1171.42 678.325C1097.28 588.99 970.765 536.625 824.277 534.669L818.304 534.617C445.21 534.617 123.143 998.642 84.5253 1413.6L43.694 1418.44Z" fill="#0178BA"/>
<path d="M2368.86 740.679H2201.11L2714.62 258.735L3181.11 740.679H3018.56C3044.82 1453.45 2515.56 2549.05 1367.9 2549.05C791.427 2549.05 515.854 2280.68 471.676 2245.16C355.052 2151.29 -8.2079 1773.77 41.7371 1290.64C188.38 1662.86 497.935 2140.48 1111.07 2140.48C2101.58 2140.48 2431.73 1102.44 2368.86 740.679Z" fill="#0178BA"/>
<path d="M1510.08 2052.01C1689.47 2052.01 1835.09 1906.34 1835.09 1726.7C1835.09 1547.1 1689.47 1401.59 1510.08 1401.59C1330.59 1401.59 1185.03 1547.1 1185.03 1726.7C1185.03 1906.34 1330.59 2052.01 1510.08 2052.01Z" fill="#F29400"/>
<path d="M219.021 1502.47L284.567 1150.38H358.919L293.424 1502.47H219.021Z" fill="white"/>
<path d="M344.749 1502.47L401.851 1195.64C407.36 1166.03 430.994 1144.46 462.711 1144.46C498.497 1144.46 510.082 1171.49 517.033 1195.64L570.016 1376.32H570.531H571.458L613.576 1150.38H688.03L630.774 1457.83C625.728 1484.91 611.311 1508.65 579.541 1508.65C548.442 1508.65 538.916 1489.44 528.567 1455.77L467.191 1250.01L466.007 1250.99L419.203 1502.47H344.749Z" fill="white"/>
<path d="M666.235 1502.47L710.516 1264.59C722.462 1200.17 778.688 1144.46 855.151 1144.46C928.214 1144.46 967.553 1197.65 955.041 1264.59C942.735 1330.44 885.89 1384.81 810.406 1384.81H783.22L796.298 1314.53C838.005 1314.53 872.297 1308.87 880.535 1265.1C886.405 1233.38 871.215 1214.8 842.021 1214.8C812.826 1214.8 790.737 1233.38 784.867 1265.1L740.638 1502.47H666.235Z" fill="white"/>
<path d="M1189.6 1220.83H1144.34C1087.39 1220.83 1053 1260.01 1040.64 1293.79H1176.01L1163.81 1359.23H1028.44C1028.34 1392.91 1048.11 1432.14 1104.95 1432.14H1150.21L1137.03 1502.48H1098.41C977.619 1502.48 941.936 1412.99 958.104 1326.38C974.22 1239.83 1043.11 1150.39 1163.91 1150.39H1202.63L1189.6 1220.83Z" fill="white"/>
</svg>
