<svg width="338" height="387" viewBox="0 0 338 387" fill="none" xmlns="http://www.w3.org/2000/svg">
<path d="M61.3469 147.919C66.5479 138.251 71.4522 128.409 76.9974 118.942C116.223 51.9763 174.89 13.4524 250.939 0.558899C253.818 0.0707399 256.805 0.218995 261.141 0C261.141 4.16125 261.161 7.67767 261.138 11.1939C260.991 33.5779 265.146 55.0029 276.424 74.5444C286.405 91.8397 296.791 108.909 307.314 125.882C318.237 143.502 328.836 161.352 333.056 181.876C345.95 244.587 328.633 298.626 281.596 341.226C232.674 385.533 174.672 397.749 112.325 375.661C49.5788 353.431 12.8025 307.06 2.13518 241.447C-4.40132 201.242 4.24468 163.265 25.6736 128.417C26.544 127.002 27.5156 125.643 28.5173 124.317C28.9058 123.802 29.509 123.449 30.952 122.232C39.1774 130.544 47.4917 138.946 56.6822 148.28C59.4282 150.561 60.8002 150.451 61.3469 147.919ZM43.2946 236.268C53.8473 305.912 119.719 354.973 191.19 342.072C249.616 331.526 294.618 278.911 295.501 219.682C295.823 198.005 289.883 178.139 279.206 159.683C270.706 144.989 261.268 130.836 252.177 116.486C239.804 96.9542 228.967 76.7795 225.043 53.5957C224.789 52.0974 223.765 50.7295 222.756 48.5643C204.269 54.8976 187.434 63.3387 171.597 73.8782C132.266 100.053 108.312 137.651 92.8888 182.466C80.5166 172.89 71.7192 161.535 59.7237 152.604C44.4241 178.937 39.4513 205.836 43.2946 236.268Z" fill="#FA2B47"/>
<path d="M43.1978 235.388C39.4512 205.836 44.424 178.937 59.7235 152.604C71.719 161.534 80.5165 172.889 92.8887 182.465C108.312 137.651 132.266 100.053 171.597 73.8778C187.434 63.3383 204.269 54.8972 222.756 48.564C223.765 50.7291 224.789 52.097 225.043 53.5953C228.967 76.7791 239.803 96.9539 252.177 116.486C261.268 130.835 270.706 144.989 279.206 159.683C289.882 178.139 295.823 198.005 295.5 219.681C294.618 278.911 249.616 331.525 191.19 342.072C119.719 354.973 53.8472 305.912 43.1978 235.388Z" fill="#F7B58A"/>
</svg>
